<?xml version="1.0" standalone="yes"?>

<svg version="1.1" viewBox="0.0 0.0 960.0 720.0" fill="none" stroke="none" stroke-linecap="square" stroke-miterlimit="10" xmlns="http://www.w3.org/2000/svg" xmlns:xlink="http://www.w3.org/1999/xlink"><clipPath id="p.0"><path d="m0 0l960.0 0l0 720.0l-960.0 0l0 -720.0z" clip-rule="nonzero"></path></clipPath><g clip-path="url(#p.0)"><path fill="#000000" fill-opacity="0.0" d="m0 0l960.0 0l0 720.0l-960.0 0z" fill-rule="nonzero"></path><path fill="#000000" fill-opacity="0.0" d="m514.4609 383.77084l350.43597 0" fill-rule="nonzero"></path><path stroke="#000000" stroke-width="2.0" stroke-linejoin="round" stroke-linecap="butt" d="m514.4609 383.77084l350.43597 0" fill-rule="nonzero"></path><path fill="#000000" fill-opacity="0.0" d="m514.4609 397.0348l350.43597 0" fill-rule="nonzero"></path><path stroke="#000000" stroke-width="2.0" stroke-linejoin="round" stroke-linecap="butt" d="m514.4609 397.0348l350.43597 0" fill-rule="nonzero"></path><path fill="#c3938c" d="m490.35638 367.28586l404.23035 0l0 122.233795l-404.23035 0z" fill-rule="nonzero"></path><path stroke="#000000" stroke-width="2.0" stroke-linejoin="round" stroke-linecap="butt" d="m490.35638 367.28586l404.23035 0l0 122.233795l-404.23035 0z" fill-rule="nonzero"></path><path fill="#000000" fill-opacity="0.0" d="m63.35852 383.77084l350.43594 0" fill-rule="nonzero"></path><path stroke="#000000" stroke-width="2.0" stroke-linejoin="round" stroke-linecap="butt" d="m63.35852 383.77084l350.43594 0" fill-rule="nonzero"></path><path fill="#000000" fill-opacity="0.0" d="m63.35852 397.0348l350.43594 0" fill-rule="nonzero"></path><path stroke="#000000" stroke-width="2.0" stroke-linejoin="round" stroke-linecap="butt" d="m63.35852 397.0348l350.43594 0" fill-rule="nonzero"></path><path fill="#c3938c" d="m39.254017 367.28586l404.23035 0l0 122.233795l-404.23035 0z" fill-rule="nonzero"></path><path stroke="#000000" stroke-width="2.0" stroke-linejoin="round" stroke-linecap="butt" d="m39.254017 367.28586l404.23035 0l0 122.233795l-404.23035 0z" fill-rule="nonzero"></path><path fill="#000000" fill-opacity="0.0" d="m49.590748 422.1725l383.55905 0" fill-rule="nonzero"></path><path stroke="#000000" stroke-width="2.0" stroke-linejoin="round" stroke-linecap="butt" d="m49.590748 422.1725l383.55905 0" fill-rule="nonzero"></path><path fill="#cfe2f3" d="m406.98163 403.4672l0 0c0 -10.080292 8.171692 -18.251984 18.251953 -18.251984c10.080292 0 18.251984 8.171692 18.251984 18.251984c0 10.080292 -8.171692 18.251953 -18.251984 18.251953c-10.080261 0 -18.251953 -8.171661 -18.251953 -18.251953z" fill-rule="nonzero"></path><path fill="#a5b4c2" d="m417.48495 398.0085c0 -1.0500488 0.8512268 -1.9012451 1.9012451 -1.9012451c1.0500488 0 1.9012451 0.8511963 1.9012451 1.9012451c0 1.0500183 -0.8511963 1.9012451 -1.9012451 1.9012451c-1.0500183 0 -1.9012451 -0.8512268 -1.9012451 -1.9012451m11.694794 0c0 -1.0500488 0.8511963 -1.9012451 1.9012451 -1.9012451c1.0500183 0 1.9012451 0.8511963 1.9012451 1.9012451c0 1.0500183 -0.8512268 1.9012451 -1.9012451 1.9012451c-1.0500488 0 -1.9012451 -0.8512268 -1.9012451 -1.9012451" fill-rule="nonzero"></path><path fill="#000000" fill-opacity="0.0" d="m415.3409 411.427q9.89267 6.794098 19.762268 0" fill-rule="nonzero"></path><path fill="#000000" fill-opacity="0.0" d="m406.98163 403.4672l0 0c0 -10.080292 8.171692 -18.251984 18.251953 -18.251984c10.080292 0 18.251984 8.171692 18.251984 18.251984c0 10.080292 -8.171692 18.251953 -18.251984 18.251953c-10.080261 0 -18.251953 -8.171661 -18.251953 -18.251953z" fill-rule="nonzero"></path><path stroke="#000000" stroke-width="2.0" stroke-linejoin="round" stroke-linecap="butt" d="m417.48495 398.0085c0 -1.0500488 0.8512268 -1.9012451 1.9012451 -1.9012451c1.0500488 0 1.9012451 0.8511963 1.9012451 1.9012451c0 1.0500183 -0.8511963 1.9012451 -1.9012451 1.9012451c-1.0500183 0 -1.9012451 -0.8512268 -1.9012451 -1.9012451m11.694794 0c0 -1.0500488 0.8511963 -1.9012451 1.9012451 -1.9012451c1.0500183 0 1.9012451 0.8511963 1.9012451 1.9012451c0 1.0500183 -0.8512268 1.9012451 -1.9012451 1.9012451c-1.0500488 0 -1.9012451 -0.8512268 -1.9012451 -1.9012451" fill-rule="nonzero"></path><path stroke="#000000" stroke-width="2.0" stroke-linejoin="round" stroke-linecap="butt" d="m415.3409 411.427q9.89267 6.794098 19.762268 0" fill-rule="nonzero"></path><path stroke="#000000" stroke-width="2.0" stroke-linejoin="round" stroke-linecap="butt" d="m406.98163 403.4672l0 0c0 -10.080292 8.171692 -18.251984 18.251953 -18.251984c10.080292 0 18.251984 8.171692 18.251984 18.251984c0 10.080292 -8.171692 18.251953 -18.251984 18.251953c-10.080261 0 -18.251953 -8.171661 -18.251953 -18.251953z" fill-rule="nonzero"></path><path fill="#980000" d="m117.73753 385.21545l28.692917 0l0 36.503967l-28.692917 0z" fill-rule="nonzero"></path><path stroke="#000000" stroke-width="2.0" stroke-linejoin="round" stroke-linecap="butt" d="m117.73753 385.21545l28.692917 0l0 36.503967l-28.692917 0z" fill-rule="nonzero"></path><path fill="#980000" d="m178.95801 385.21545l28.692917 0l0 36.503967l-28.692917 0z" fill-rule="nonzero"></path><path stroke="#000000" stroke-width="2.0" stroke-linejoin="round" stroke-linecap="butt" d="m178.95801 385.21545l28.692917 0l0 36.503967l-28.692917 0z" fill-rule="nonzero"></path><path fill="#980000" d="m241.91602 385.21545l28.692902 0l0 36.503967l-28.692902 0z" fill-rule="nonzero"></path><path stroke="#000000" stroke-width="2.0" stroke-linejoin="round" stroke-linecap="butt" d="m241.91602 385.21545l28.692902 0l0 36.503967l-28.692902 0z" fill-rule="nonzero"></path><path fill="#980000" d="m304.17847 385.21545l28.692932 0l0 36.503967l-28.692932 0z" fill-rule="nonzero"></path><path stroke="#000000" stroke-width="2.0" stroke-linejoin="round" stroke-linecap="butt" d="m304.17847 385.21545l28.692932 0l0 36.503967l-28.692932 0z" fill-rule="nonzero"></path><path fill="#980000" d="m371.48294 385.21545l28.692902 0l0 36.503967l-28.692902 0z" fill-rule="nonzero"></path><path stroke="#000000" stroke-width="2.0" stroke-linejoin="round" stroke-linecap="butt" d="m371.48294 385.21545l28.692902 0l0 36.503967l-28.692902 0z" fill-rule="nonzero"></path><path fill="#ffffff" d="m149.73932 376.17224l6.7122955 -9.802155l-0.66185 8.99939l7.6194153 -1.4669495l-3.026123 4.8301086l7.925995 1.3891907l-6.293915 3.9512634l7.2010345 4.7574463l-8.589661 -0.58813477l2.3588715 8.70871l-7.4390717 -6.1483154l-1.394043 8.92334l-4.8962708 -8.115509l-3.691574 11.264008l-1.3886261 -10.094513l-5.325485 3.3631592l1.6320953 -6.2192993l-9.976486 1.0985107l6.4688416 -4.75235l-6.7122955 -5.3404846l8.344391 -1.6866455l-7.677124 -8.994324l12.519287 6.802368l1.8755493 -6.802368z" fill-rule="nonzero"></path><path stroke="#000000" stroke-width="2.0" stroke-linejoin="round" stroke-linecap="butt" d="m149.73932 376.17224l6.7122955 -9.802155l-0.66185 8.99939l7.6194153 -1.4669495l-3.026123 4.8301086l7.925995 1.3891907l-6.293915 3.9512634l7.2010345 4.7574463l-8.589661 -0.58813477l2.3588715 8.70871l-7.4390717 -6.1483154l-1.394043 8.92334l-4.8962708 -8.115509l-3.691574 11.264008l-1.3886261 -10.094513l-5.325485 3.3631592l1.6320953 -6.2192993l-9.976486 1.0985107l6.4688416 -4.75235l-6.7122955 -5.3404846l8.344391 -1.6866455l-7.677124 -8.994324l12.519287 6.802368l1.8755493 -6.802368z" fill-rule="nonzero"></path><path fill="#cccccc" d="m690.7769 385.16953l28.692871 0l0 36.503937l-28.692871 0z" fill-rule="nonzero"></path><path stroke="#000000" stroke-width="2.0" stroke-linejoin="round" stroke-linecap="butt" d="m690.7769 385.16953l28.692871 0l0 36.503937l-28.692871 0z" fill-rule="nonzero"></path><path fill="#ffffff" d="m266.9564 382.45917l4.944092 -7.220337l-0.4874878 6.628998l5.6122437 -1.0805359l-2.2289734 3.5578613l5.8381042 1.0232849l-4.6359253 2.910553l5.304077 3.5043335l-6.3269043 -0.43322754l1.7374573 6.4148865l-5.479431 -4.5288696l-1.0267944 6.5729675l-3.6064758 -5.977936l-2.7191162 8.29715l-1.0228271 -7.435669l-3.9226074 2.477295l1.2021484 -4.5811462l-7.348404 0.8091736l4.764786 -3.5006104l-4.9441223 -3.933838l6.1462708 -1.2424011l-5.65477 -6.625244l9.22139 5.0106506l1.3814697 -5.0106506z" fill-rule="nonzero"></path><path stroke="#000000" stroke-width="2.0" stroke-linejoin="round" stroke-linecap="butt" d="m266.9564 382.45917l4.944092 -7.220337l-0.4874878 6.628998l5.6122437 -1.0805359l-2.2289734 3.5578613l5.8381042 1.0232849l-4.6359253 2.910553l5.304077 3.5043335l-6.3269043 -0.43322754l1.7374573 6.4148865l-5.479431 -4.5288696l-1.0267944 6.5729675l-3.6064758 -5.977936l-2.7191162 8.29715l-1.0228271 -7.435669l-3.9226074 2.477295l1.2021484 -4.5811462l-7.348404 0.8091736l4.764786 -3.5006104l-4.9441223 -3.933838l6.1462708 -1.2424011l-5.65477 -6.625244l9.22139 5.0106506l1.3814697 -5.0106506z" fill-rule="nonzero"></path><path fill="#000000" fill-opacity="0.0" d="m288.17847 395.46744l96.0 0" fill-rule="nonzero"></path><path stroke="#9fc5e8" stroke-width="2.0" stroke-linejoin="round" stroke-linecap="butt" d="m288.17847 395.46744l96.0 0" fill-rule="nonzero"></path><path fill="#000000" fill-opacity="0.0" d="m296.17847 411.46744l96.0 0" fill-rule="nonzero"></path><path stroke="#9fc5e8" stroke-width="2.0" stroke-linejoin="round" stroke-linecap="butt" d="m296.17847 411.46744l96.0 0" fill-rule="nonzero"></path><path fill="#ffffff" d="m331.65192 381.0917l4.944092 -7.2203064l-0.4874878 6.628998l5.612274 -1.0805664l-2.2289734 3.5578613l5.8380737 1.0233154l-4.6359253 2.9105225l5.304077 3.5043335l-6.3269043 -0.43319702l1.7374878 6.414856l-5.479431 -4.5288696l-1.026825 6.5729675l-3.6064453 -5.9779053l-2.7191467 8.297119l-1.0228271 -7.435669l-3.9226074 2.4773254l1.202179 -4.5811768l-7.348419 0.8091736l4.7647705 -3.5006104l-4.944092 -3.933838l6.14624 -1.2423706l-5.6547546 -6.6252747l9.2213745 5.0106506l1.3814697 -5.0106506z" fill-rule="nonzero"></path><path stroke="#000000" stroke-width="2.0" stroke-linejoin="round" stroke-linecap="butt" d="m331.65192 381.0917l4.944092 -7.2203064l-0.4874878 6.628998l5.612274 -1.0805664l-2.2289734 3.5578613l5.8380737 1.0233154l-4.6359253 2.9105225l5.304077 3.5043335l-6.3269043 -0.43319702l1.7374878 6.414856l-5.479431 -4.5288696l-1.026825 6.5729675l-3.6064453 -5.9779053l-2.7191467 8.297119l-1.0228271 -7.435669l-3.9226074 2.4773254l1.202179 -4.5811768l-7.348419 0.8091736l4.7647705 -3.5006104l-4.944092 -3.933838l6.14624 -1.2423706l-5.6547546 -6.6252747l9.2213745 5.0106506l1.3814697 -5.0106506z" fill-rule="nonzero"></path><path fill="#000000" fill-opacity="0.0" d="m498.2994 422.1725l383.55905 0" fill-rule="nonzero"></path><path stroke="#000000" stroke-width="2.0" stroke-linejoin="round" stroke-linecap="butt" d="m498.2994 422.1725l383.55905 0" fill-rule="nonzero"></path><path fill="#f1c232" d="m855.6903 403.4672l0 0c0 -10.080292 8.171692 -18.251984 18.251953 -18.251984c10.080261 0 18.251953 8.171692 18.251953 18.251984c0 10.080292 -8.171692 18.251953 -18.251953 18.251953c-10.080261 0 -18.251953 -8.171661 -18.251953 -18.251953z" fill-rule="nonzero"></path><path fill="#c09b27" d="m866.1936 398.0085c0 -1.0500488 0.8512573 -1.9012451 1.9012451 -1.9012451c1.0500488 0 1.9012451 0.8511963 1.9012451 1.9012451c0 1.0500183 -0.8511963 1.9012451 -1.9012451 1.9012451c-1.0499878 0 -1.9012451 -0.8512268 -1.9012451 -1.9012451m11.694824 0c0 -1.0500488 0.8511963 -1.9012451 1.9012451 -1.9012451c1.0499878 0 1.9012451 0.8511963 1.9012451 1.9012451c0 1.0500183 -0.8512573 1.9012451 -1.9012451 1.9012451c-1.0500488 0 -1.9012451 -0.8512268 -1.9012451 -1.9012451" fill-rule="nonzero"></path><path fill="#000000" fill-opacity="0.0" d="m864.04956 411.427q9.8927 6.794098 19.762268 0" fill-rule="nonzero"></path><path fill="#000000" fill-opacity="0.0" d="m855.6903 403.4672l0 0c0 -10.080292 8.171692 -18.251984 18.251953 -18.251984c10.080261 0 18.251953 8.171692 18.251953 18.251984c0 10.080292 -8.171692 18.251953 -18.251953 18.251953c-10.080261 0 -18.251953 -8.171661 -18.251953 -18.251953z" fill-rule="nonzero"></path><path stroke="#000000" stroke-width="2.0" stroke-linejoin="round" stroke-linecap="butt" d="m866.1936 398.0085c0 -1.0500488 0.8512573 -1.9012451 1.9012451 -1.9012451c1.0500488 0 1.9012451 0.8511963 1.9012451 1.9012451c0 1.0500183 -0.8511963 1.9012451 -1.9012451 1.9012451c-1.0499878 0 -1.9012451 -0.8512268 -1.9012451 -1.9012451m11.694824 0c0 -1.0500488 0.8511963 -1.9012451 1.9012451 -1.9012451c1.0499878 0 1.9012451 0.8511963 1.9012451 1.9012451c0 1.0500183 -0.8512573 1.9012451 -1.9012451 1.9012451c-1.0500488 0 -1.9012451 -0.8512268 -1.9012451 -1.9012451" fill-rule="nonzero"></path><path stroke="#000000" stroke-width="2.0" stroke-linejoin="round" stroke-linecap="butt" d="m864.04956 411.427q9.8927 6.794098 19.762268 0" fill-rule="nonzero"></path><path stroke="#000000" stroke-width="2.0" stroke-linejoin="round" stroke-linecap="butt" d="m855.6903 403.4672l0 0c0 -10.080292 8.171692 -18.251984 18.251953 -18.251984c10.080261 0 18.251953 8.171692 18.251953 18.251984c0 10.080292 -8.171692 18.251953 -18.251953 18.251953c-10.080261 0 -18.251953 -8.171661 -18.251953 -18.251953z" fill-rule="nonzero"></path><path fill="#cccccc" d="m753.3858 385.24698l28.692932 0l0 36.503937l-28.692932 0z" fill-rule="nonzero"></path><path stroke="#000000" stroke-width="2.0" stroke-linejoin="round" stroke-linecap="butt" d="m753.3858 385.24698l28.692932 0l0 36.503937l-28.692932 0z" fill-rule="nonzero"></path><path fill="#980000" d="m742.8137 422.8032l0.14178467 -36.51648l10.976318 -1.2473145l-0.14172363 36.51648z" fill-rule="nonzero"></path><path stroke="#000000" stroke-width="2.0" stroke-linejoin="round" stroke-linecap="butt" d="m742.8137 422.8032l0.14178467 -36.51648l10.976318 -1.2473145l-0.14172363 36.51648z" fill-rule="nonzero"></path><path fill="#cccccc" d="m566.44617 385.21545l28.692932 0l0 36.503967l-28.692932 0z" fill-rule="nonzero"></path><path stroke="#000000" stroke-width="2.0" stroke-linejoin="round" stroke-linecap="butt" d="m566.44617 385.21545l28.692932 0l0 36.503967l-28.692932 0z" fill-rule="nonzero"></path><path fill="#980000" d="m627.6667 385.21545l28.692871 0l0 36.503967l-28.692871 0z" fill-rule="nonzero"></path><path stroke="#000000" stroke-width="2.0" stroke-linejoin="round" stroke-linecap="butt" d="m627.6667 385.21545l28.692871 0l0 36.503967l-28.692871 0z" fill-rule="nonzero"></path><path fill="#980000" d="m820.1916 385.21545l28.692932 0l0 36.503967l-28.692932 0z" fill-rule="nonzero"></path><path stroke="#000000" stroke-width="2.0" stroke-linejoin="round" stroke-linecap="butt" d="m820.1916 385.21545l28.692932 0l0 36.503967l-28.692932 0z" fill-rule="nonzero"></path><path fill="#000000" fill-opacity="0.0" d="m736.88715 395.46744l96.0 0" fill-rule="nonzero"></path><path stroke="#f1c232" stroke-width="2.0" stroke-linejoin="round" stroke-linecap="butt" d="m736.88715 395.46744l96.0 0" fill-rule="nonzero"></path><path fill="#000000" fill-opacity="0.0" d="m744.88715 411.46744l96.0 0" fill-rule="nonzero"></path><path stroke="#f1c232" stroke-width="2.0" stroke-linejoin="round" stroke-linecap="butt" d="m744.88715 411.46744l96.0 0" fill-rule="nonzero"></path><path fill="#980000" d="m555.8741 422.7717l0.14178467 -36.51648l10.976318 -1.2473145l-0.14172363 36.51648z" fill-rule="nonzero"></path><path stroke="#000000" stroke-width="2.0" stroke-linejoin="round" stroke-linecap="butt" d="m555.8741 422.7717l0.14178467 -36.51648l10.976318 -1.2473145l-0.14172363 36.51648z" fill-rule="nonzero"></path><path fill="#980000" d="m681.5539 422.8032l0.14172363 -36.51648l10.976379 -1.2473145l-0.14172363 36.51648z" fill-rule="nonzero"></path><path stroke="#000000" stroke-width="2.0" stroke-linejoin="round" stroke-linecap="butt" d="m681.5539 422.8032l0.14172363 -36.51648l10.976379 -1.2473145l-0.14172363 36.51648z" fill-rule="nonzero"></path><path fill="#ffffff" d="m599.3929 378.86646l6.7122803 -9.802155l-0.66186523 8.99939l7.619446 -1.4669495l-3.026123 4.8301086l7.9259644 1.3891907l-6.2938843 3.951294l7.200989 4.757416l-8.589661 -0.58813477l2.3588867 8.70871l-7.439087 -6.1483154l-1.394043 8.92334l-4.89624 -8.115509l-3.6915894 11.264038l-1.3886108 -10.094543l-5.3255005 3.3631592l1.6320801 -6.2192993l-9.97644 1.0985107l6.468811 -4.75235l-6.7122803 -5.3404846l8.34436 -1.6866455l-7.677124 -8.994324l12.519287 6.802368l1.8755493 -6.802368z" fill-rule="nonzero"></path><path stroke="#000000" stroke-width="2.0" stroke-linejoin="round" stroke-linecap="butt" d="m599.3929 378.86646l6.7122803 -9.802155l-0.66186523 8.99939l7.619446 -1.4669495l-3.026123 4.8301086l7.9259644 1.3891907l-6.2938843 3.951294l7.200989 4.757416l-8.589661 -0.58813477l2.3588867 8.70871l-7.439087 -6.1483154l-1.394043 8.92334l-4.89624 -8.115509l-3.6915894 11.264038l-1.3886108 -10.094543l-5.3255005 3.3631592l1.6320801 -6.2192993l-9.97644 1.0985107l6.468811 -4.75235l-6.7122803 -5.3404846l8.34436 -1.6866455l-7.677124 -8.994324l12.519287 6.802368l1.8755493 -6.802368z" fill-rule="nonzero"></path><path fill="#ffffff" d="m715.6769 381.0917l4.944092 -7.2203064l-0.48754883 6.628998l5.6123047 -1.0805664l-2.229004 3.5578613l5.838135 1.0233154l-4.6359253 2.9105225l5.304077 3.5043335l-6.3269043 -0.43319702l1.7374268 6.414856l-5.479431 -4.5288696l-1.0267944 6.5729675l-3.6064453 -5.9779053l-2.7191162 8.297119l-1.0228271 -7.435669l-3.9226074 2.4773254l1.2021484 -4.5811768l-7.3484497 0.8091736l4.7648315 -3.5006104l-4.944153 -3.933838l6.1463013 -1.2423706l-5.654785 -6.6252747l9.2213745 5.0106506l1.3814697 -5.0106506z" fill-rule="nonzero"></path><path stroke="#000000" stroke-width="2.0" stroke-linejoin="round" stroke-linecap="butt" d="m715.6769 381.0917l4.944092 -7.2203064l-0.48754883 6.628998l5.6123047 -1.0805664l-2.229004 3.5578613l5.838135 1.0233154l-4.6359253 2.9105225l5.304077 3.5043335l-6.3269043 -0.43319702l1.7374268 6.414856l-5.479431 -4.5288696l-1.0267944 6.5729675l-3.6064453 -5.9779053l-2.7191162 8.297119l-1.0228271 -7.435669l-3.9226074 2.4773254l1.2021484 -4.5811768l-7.3484497 0.8091736l4.7648315 -3.5006104l-4.944153 -3.933838l6.1463013 -1.2423706l-5.654785 -6.6252747l9.2213745 5.0106506l1.3814697 -5.0106506z" fill-rule="nonzero"></path><path fill="#ffffff" d="m780.3724 379.72424l4.944092 -7.2203064l-0.4874878 6.628998l5.6123047 -1.0805664l-2.229004 3.5578918l5.8380737 1.0232849l-4.6359253 2.9105225l5.304077 3.504364l-6.3269043 -0.43322754l1.7374878 6.414856l-5.479431 -4.5288696l-1.0267944 6.5729675l-3.6064453 -5.9779053l-2.7191772 8.297119l-1.0228271 -7.435669l-3.9226074 2.4773254l1.2022095 -4.5811768l-7.3484497 0.8091736l4.7647705 -3.5006104l-4.944092 -3.9338074l6.14624 -1.2424011l-5.654724 -6.6252747l9.2213745 5.0106506l1.3814697 -5.0106506z" fill-rule="nonzero"></path><path stroke="#000000" stroke-width="2.0" stroke-linejoin="round" stroke-linecap="butt" d="m780.3724 379.72424l4.944092 -7.2203064l-0.4874878 6.628998l5.6123047 -1.0805664l-2.229004 3.5578918l5.8380737 1.0232849l-4.6359253 2.9105225l5.304077 3.504364l-6.3269043 -0.43322754l1.7374878 6.414856l-5.479431 -4.5288696l-1.0267944 6.5729675l-3.6064453 -5.9779053l-2.7191772 8.297119l-1.0228271 -7.435669l-3.9226074 2.4773254l1.2022095 -4.5811768l-7.3484497 0.8091736l4.7647705 -3.5006104l-4.944092 -3.9338074l6.14624 -1.2424011l-5.654724 -6.6252747l9.2213745 5.0106506l1.3814697 -5.0106506z" fill-rule="nonzero"></path></g></svg>

